<?xml version="1.0" encoding="UTF-8"?>
<!DOCTYPE svg PUBLIC "-//W3C//DTD SVG 1.1//EN" "http://www.w3.org/Graphics/SVG/1.1/DTD/svg11.dtd">
<!-- Creator: CorelDRAW 2019 -->
<svg xmlns="http://www.w3.org/2000/svg" xml:space="preserve" width="374px" height="382px" version="1.1" style="shape-rendering:geometricPrecision; text-rendering:geometricPrecision; image-rendering:optimizeQuality; fill-rule:evenodd; clip-rule:evenodd"
viewBox="0 0 374 382.33"
 xmlns:xlink="http://www.w3.org/1999/xlink"
 xmlns:xodm="http://www.corel.com/coreldraw/odm/2003">
 <defs>
  <style type="text/css">
   <![CDATA[
    .fil6 {fill:#FEFEFE}
    .fil4 {fill:#FFED00}
    .fil7 {fill:#E31E24}
    .fil2 {fill:#483689}
    .fil0 {fill:#483689}
    .fil5 {fill:#009846}
    .fil1 {fill:#FFEE00}
    .fil3 {fill:#FEFEFE;fill-rule:nonzero}
   ]]>
  </style>
 </defs>
 <g id="Layer_x0020_1">
  <metadata id="CorelCorpID_0Corel-Layer"/>
  <g id="BASE">
   <path class="fil0" d="M305.39 340.2c-0.12,0.64 -0.23,1.28 -0.35,1.9 -0.31,1.66 -0.61,3.33 -0.89,5l-1.39 8.35 -16.32 -1.34c-2.44,1.74 -5.05,3.3 -7.63,4.78 -10.13,5.82 -21.1,10.35 -32.17,14.04 -11.82,3.94 -24.12,6.78 -36.51,8.12 -4.91,0.53 -10.02,0.96 -14.96,0.71l-3.17 -0.16 -4.86 -4.21 -4.88 4.22 -3.16 0.15c-4.94,0.25 -10.05,-0.18 -14.96,-0.71 -12.39,-1.34 -24.69,-4.18 -36.51,-8.12 -11.07,-3.69 -22.04,-8.22 -32.17,-14.04 -2.58,-1.48 -5.19,-3.04 -7.63,-4.78l-16.32 1.34 -1.39 -8.35c-0.28,-1.67 -0.58,-3.34 -0.9,-5 -0.11,-0.62 -0.22,-1.26 -0.34,-1.9 -0.48,-0.4 -0.98,-0.79 -1.45,-1.19 -2.31,-1.97 -4.59,-3.96 -6.83,-6.02 -7.1,-6.51 -13.7,-13.55 -19.67,-21.12 -1.49,-1.88 -2.93,-3.81 -4.32,-5.77 -6.03,-8.5 -11.3,-17.62 -15.85,-26.99 -1.66,-3.42 -3.24,-6.89 -4.63,-10.43 -0.97,-2.45 -2.08,-5.32 -2.27,-7.95 -0.17,-2.45 0.38,-5.23 1.17,-7.86 -1.69,-0.96 -3.32,-2.05 -4.35,-3.22 -2.89,-3.31 -5.14,-12.08 -6.15,-16.52 -2.6,-11.39 -3.52,-23.27 -3.31,-34.94 0.22,-12.12 1.49,-24.27 3.79,-36.18 0.73,-3.78 1.52,-7.57 2.53,-11.29l-6.02 -14.16 6.6 -4.19c1.54,-0.98 3.07,-1.97 4.6,-2.96 0.76,-0.49 1.54,-0.96 2.29,-1.46 0.23,-0.58 0.44,-1.18 0.67,-1.74 1.12,-2.77 2.28,-5.53 3.52,-8.25 4.2,-9.19 9.2,-18 14.8,-26.4 6.93,-10.39 15.53,-19.81 24.78,-28.17 4.24,-3.83 8.65,-7.59 13.33,-10.87l2.42 -1.7 5.53 0.07c0.28,-1.41 0.63,-2.8 1.11,-4.03 2.04,-5.25 10.52,-9.89 15.35,-12.59 9.06,-5.06 18.61,-9.35 28.31,-13.04 2.97,-1.13 5.99,-2.13 9.04,-3.02 9.73,-2.85 19.77,-4.72 29.82,-5.99 3.61,-0.46 7.23,-0.86 10.86,-1.13l12.61 -10.58 12.57 10.58c3.63,0.27 7.25,0.67 10.85,1.13 10.05,1.27 20.09,3.14 29.82,5.99 3.05,0.89 6.07,1.89 9.04,3.02 9.7,3.69 19.25,7.98 28.31,13.04 4.83,2.7 13.3,7.34 15.35,12.59 0.48,1.23 0.83,2.62 1.1,4.03l5.54 -0.07 2.42 1.7c4.68,3.28 9.09,7.04 13.33,10.87 9.25,8.36 17.85,17.78 24.78,28.17 5.6,8.4 10.6,17.21 14.8,26.4 1.24,2.72 2.4,5.48 3.52,8.25 0.23,0.56 0.44,1.16 0.67,1.74 0.75,0.5 1.53,0.97 2.29,1.46 1.53,0.99 3.06,1.98 4.6,2.96l6.6 4.19 -6.02 14.16c1.01,3.72 1.8,7.51 2.53,11.29 2.3,11.91 3.57,24.06 3.79,36.18 0.21,11.67 -0.71,23.55 -3.31,34.94 -1.01,4.44 -3.26,13.21 -6.15,16.52 -1.03,1.17 -2.66,2.26 -4.35,3.22 0.79,2.63 1.34,5.41 1.17,7.86 -0.19,2.63 -1.3,5.5 -2.27,7.95 -1.39,3.54 -2.97,7.01 -4.63,10.43 -4.55,9.37 -9.83,18.49 -15.85,26.99 -1.39,1.96 -2.83,3.89 -4.32,5.77 -5.97,7.57 -12.57,14.61 -19.67,21.12 -2.24,2.06 -4.52,4.05 -6.83,6.02 -0.47,0.4 -0.97,0.79 -1.45,1.19z"/>
   <path class="fil1" d="M197.78 15.92c4.05,0.25 8.18,0.71 12.18,1.22 9.75,1.23 19.61,3.06 29.05,5.83 2.92,0.85 5.82,1.81 8.66,2.89 9.42,3.59 18.86,7.82 27.66,12.74 3.22,1.8 11.75,6.48 13.14,10.06 0.69,1.75 1.16,4.61 1.48,7.24l8.25 -0.1 1.12 0.78c4.41,3.09 8.86,6.88 12.84,10.48 8.93,8.07 17.31,17.23 23.99,27.25 5.45,8.19 10.32,16.76 14.41,25.71 1.21,2.66 2.34,5.34 3.43,8.05 0.37,0.9 0.82,2.2 1.29,3.15 1.11,0.82 2.46,1.63 3.57,2.35 1.54,1 3.09,2 4.65,2.99l3.04 1.93 -5.06 11.89c1.19,4.08 2.12,8.47 2.91,12.57 2.25,11.6 3.49,23.52 3.7,35.33 0.2,11.22 -0.69,22.79 -3.18,33.75 -0.69,3.04 -2.95,11.95 -5.05,14.35 -1.03,1.18 -4.04,2.75 -6.72,4.03 1.31,3.35 2.51,7.31 2.32,9.97 -0.13,1.92 -1.22,4.69 -1.93,6.49 -1.34,3.41 -2.88,6.78 -4.48,10.07 -4.41,9.08 -9.6,18.06 -15.44,26.29 -1.34,1.89 -2.72,3.75 -4.16,5.57 -5.81,7.37 -12.22,14.2 -19.13,20.54 -2.2,2.01 -4.44,3.96 -6.7,5.9 -0.77,0.66 -1.91,1.54 -2.7,2.32 -0.32,1.12 -0.55,2.57 -0.75,3.61 -0.32,1.7 -0.62,3.41 -0.91,5.11l-0.64 3.86 -13.63 -1.12c-2.66,2.05 -5.92,4.01 -8.65,5.57 -9.79,5.63 -20.57,10.07 -31.27,13.64 -11.46,3.82 -23.46,6.59 -35.47,7.89 -4.47,0.48 -9.67,0.92 -14.18,0.69l-1.47 -0.07 -6.8 -5.91 -6.84 5.91 -1.46 0.07c-4.51,0.23 -9.71,-0.21 -14.18,-0.69 -12.01,-1.3 -24.01,-4.07 -35.47,-7.89 -10.7,-3.57 -21.48,-8.01 -31.27,-13.64 -2.73,-1.56 -5.99,-3.52 -8.65,-5.57l-13.63 1.12 -0.64 -3.86c-0.29,-1.7 -0.59,-3.41 -0.91,-5.11 -0.2,-1.04 -0.43,-2.49 -0.75,-3.61 -0.79,-0.78 -1.93,-1.66 -2.7,-2.32 -2.26,-1.94 -4.5,-3.89 -6.7,-5.9 -6.91,-6.34 -13.32,-13.17 -19.13,-20.54 -1.44,-1.82 -2.82,-3.68 -4.16,-5.57 -5.84,-8.23 -11.03,-17.21 -15.44,-26.29 -1.6,-3.29 -3.14,-6.66 -4.48,-10.07 -0.71,-1.8 -1.8,-4.57 -1.93,-6.49 -0.19,-2.66 1.01,-6.62 2.32,-9.97 -2.68,-1.28 -5.69,-2.85 -6.72,-4.03 -2.1,-2.4 -4.36,-11.31 -5.05,-14.35 -2.5,-10.96 -3.38,-22.53 -3.18,-33.75 0.21,-11.81 1.45,-23.73 3.7,-35.33 0.79,-4.1 1.72,-8.49 2.9,-12.57l-5.05 -11.89 3.04 -1.93c1.56,-0.99 3.11,-1.99 4.65,-2.99 1.11,-0.72 2.46,-1.53 3.57,-2.35 0.47,-0.95 0.92,-2.25 1.29,-3.15 1.09,-2.71 2.22,-5.39 3.43,-8.05 4.09,-8.95 8.96,-17.52 14.41,-25.71 6.68,-10.02 15.06,-19.18 23.99,-27.25 3.98,-3.6 8.43,-7.39 12.84,-10.48l1.12 -0.78 8.25 0.1c0.32,-2.63 0.79,-5.49 1.47,-7.24 1.4,-3.58 9.93,-8.26 13.15,-10.06 8.8,-4.92 18.24,-9.15 27.66,-12.74 2.84,-1.08 5.74,-2.04 8.66,-2.89 9.44,-2.77 19.3,-4.6 29.05,-5.83 4,-0.51 8.13,-0.97 12.18,-1.22l10.67 -8.94 10.62 8.94z"/>
   <path class="fil2" d="M187.15 12.53l-9.01 7.56c0,0 -28.05,1.37 -50.03,9.74 -21.99,8.37 -37.48,18.12 -38.36,20.37 -0.87,2.25 -1.62,9.99 -1.62,9.99l-10.74 -0.12c0,0 -21.24,14.86 -35.73,36.6 -14.49,21.74 -18.24,36.48 -19.49,37.48 -1.25,1 -9.12,5.99 -9.12,5.99l4.25 10c0,0 -6.37,20.24 -6.87,48.22 -0.5,27.98 6.31,44.22 7.18,45.22 0.88,1 9.06,4.69 9.06,4.69 0,0 -3.87,8.3 -3.63,11.8 0.25,3.5 10.62,27.74 25.11,46.1 14.5,18.36 28.36,27.8 28.99,29.3 0.62,1.49 2.06,10.11 2.06,10.11l11.43 -0.93c0,0 11.81,10.18 39.91,19.55 28.11,9.37 48.1,8.37 48.1,8.37l8.51 -7.36 8.48 7.36c0,0 19.99,1 48.1,-8.37 28.1,-9.37 39.91,-19.55 39.91,-19.55l11.43 0.93c0,0 1.44,-8.62 2.06,-10.11 0.63,-1.5 14.49,-10.94 28.98,-29.3 14.5,-18.36 24.86,-42.6 25.11,-46.1 0.25,-3.5 -3.62,-11.8 -3.62,-11.8 0,0 8.18,-3.69 9.06,-4.69 0.87,-1 7.68,-17.24 7.18,-45.22 -0.5,-27.98 -6.87,-48.22 -6.87,-48.22l4.25 -10c0,0 -7.87,-4.99 -9.12,-5.99 -1.25,-1 -5,-15.74 -19.49,-37.48 -14.49,-21.74 -35.73,-36.6 -35.73,-36.6l-10.74 0.12c0,0 -0.75,-7.74 -1.63,-9.99 -0.87,-2.25 -16.36,-12 -38.35,-20.37 -21.98,-8.37 -50.03,-9.74 -50.03,-9.74l-8.98 -7.56z"/>
  </g>
  <path id="NAME" class="fil3" d="M107.61 325.74l2.01 1.43 -1.43 2.01 -8.21 -5.85 1.42 -2 2.01 1.42 7.5 -10.55c1.51,-2.12 2.27,-3.91 2.26,-5.36 -0.01,-1.46 -0.78,-2.73 -2.3,-3.81 -1.48,-1.06 -2.87,-1.33 -4.15,-0.84 -1.28,0.5 -2.71,1.86 -4.29,4.08l-7.46 10.49 2 1.42 -1.42 2.01 -7.05 -5.02 1.43 -2 2.01 1.43 7.19 -10.12c1.23,-1.73 2.31,-2.96 3.24,-3.68 0.93,-0.73 2.04,-1.22 3.33,-1.47 2.22,-0.42 4.57,0.25 7.05,2.02 2.76,1.96 4.32,4.07 4.7,6.35 0.38,2.28 -0.42,4.8 -2.38,7.56l-7.46 10.48zm-18.63 -45.82l-4.24 21.01 10.76 -10.26 -1.69 -1.78 1.78 -1.69 5.73 6.01 -1.78 1.69 -1.7 -1.78 -14.32 13.65 1.7 1.78 -1.78 1.7 -4.13 -4.32 4.29 -21.09 -11 10.48 1.7 1.79 -1.78 1.69 -5.73 -6.01 1.78 -1.7 1.7 1.79 16.27 -15.52 2.44 2.56zm-28.27 -1.2l16.66 -10.68 -1.33 -2.07 2.07 -1.33 5.44 8.49 -2.07 1.33 -1.33 -2.07 -16.65 10.68 1.32 2.07 -2.07 1.32 -5.44 -8.48 2.07 -1.33 1.33 2.07zm11.51 -25.52l-16.78 17.61 0.6 1.33 -2.25 1.01 -3.89 -8.63 2.24 -1.01 1.01 2.24 11.12 -11.72 -16.09 0.72 1 2.22 -2.24 1.02 -2.75 -6.08 2.25 -1.01 0.6 1.32 24.17 -1.27 1.01 2.25zm-11.2 -31.58l5.1 17.98 -2.37 0.68 -0.67 -2.37 -19.03 5.4 0.67 2.37 -2.36 0.67 -4.9 -17.22 4.74 -1.35 0.73 2.57 -2.37 0.67 2.08 7.33 7.92 -2.25 -1.41 -4.96 -1.57 0.45 -0.68 -2.37 5.53 -1.57 0.67 2.37 -1.58 0.45 1.41 4.96 8.55 -2.43 -2.3 -8.09 -2.56 0.73 -0.73 -2.56 5.13 -1.46zm-11.57 -9.08l8.07 -0.61 -0.15 -2.05 2.45 -0.19 0.72 9.44 -2.45 0.19 -0.19 -2.45 -19.73 1.5 0.19 2.45 -2.46 0.19 -0.8 -10.61c-0.2,-2.65 0.17,-4.73 1.14,-6.24 0.96,-1.52 2.43,-2.35 4.4,-2.5 1.68,-0.13 3.13,0.16 4.35,0.86 1.23,0.71 2.22,1.83 2.99,3.38l8.54 -7.17 -0.12 -1.63 2.45 -0.18 0.48 6.31 -10.03 7.41 0.15 1.9zm-2.35 0.18l-0.07 -0.86c-0.14,-1.88 -0.69,-3.25 -1.64,-4.12 -0.96,-0.86 -2.32,-1.23 -4.08,-1.09 -1.34,0.1 -2.31,0.58 -2.92,1.43 -0.6,0.86 -0.84,2.09 -0.72,3.7l0.13 1.65 9.3 -0.71zm11.65 -18.58l-5.46 -0.42 0.22 -2.86 2.57 0.19c0.56,-0.78 0.99,-1.52 1.31,-2.23 0.31,-0.72 0.49,-1.38 0.54,-2.02 0.09,-1.23 -0.17,-2.25 -0.78,-3.06 -0.62,-0.8 -1.47,-1.25 -2.56,-1.33 -1.03,-0.08 -1.89,0.09 -2.57,0.52 -0.66,0.44 -1.43,1.32 -2.28,2.62l-1.03 1.58c-1.41,2.14 -2.72,3.63 -3.94,4.49 -1.22,0.85 -2.56,1.22 -4.02,1.11 -2.03,-0.15 -3.62,-1.01 -4.79,-2.57 -1.17,-1.56 -1.67,-3.49 -1.49,-5.8 0.09,-1.2 0.27,-2.39 0.52,-3.57 0.26,-1.18 0.6,-2.35 1.04,-3.5l4.98 0.38 -0.22 2.87 -2.35 -0.18c-0.49,0.66 -0.86,1.31 -1.13,1.95 -0.26,0.64 -0.42,1.26 -0.47,1.88 -0.07,0.95 0.21,1.77 0.82,2.48 0.61,0.71 1.4,1.1 2.36,1.17 0.77,0.06 1.45,-0.12 2.04,-0.56 0.61,-0.43 1.34,-1.28 2.19,-2.54l1.09 -1.58c1.56,-2.3 2.93,-3.85 4.1,-4.67 1.19,-0.83 2.56,-1.18 4.1,-1.06 2.25,0.17 3.99,1.14 5.21,2.92 1.22,1.78 1.72,4.06 1.51,6.84 -0.08,1.03 -0.25,2.12 -0.5,3.28 -0.25,1.16 -0.59,2.38 -1.01,3.67zm-17.79 -31.36l19.28 4.46 0.55 -2.4 2.4 0.55 -2.27 9.82 -2.4 -0.55 0.56 -2.4 -19.28 -4.45 -0.56 2.4 -2.39 -0.55 2.26 -9.83 2.4 0.56 -0.55 2.39zm4.91 -16.31l-2.31 5.85 2.48 0.98 -0.98 2.48 -4.96 -1.96 8.46 -21.46 4.96 1.96 -0.97 2.48 -2.48 -0.98 -2.31 5.85 18.21 7.18 0.91 -2.29 2.29 0.91 -3.7 9.37 -2.29 -0.9 0.9 -2.29 -18.21 -7.18zm23.35 -15.9l2.94 4.08 1.34 -2.09 2.07 1.33 -3.61 5.64 -2.08 -1.33 0.82 -1.27 -14.2 -19.64 2.05 -3.2 23.81 4.65 0.78 -1.22 2.08 1.32 -4.98 7.77 -2.08 -1.33 1.34 -2.08 -4.95 -0.96 -5.33 8.33zm-1.62 -2.24l4.24 -6.61 -10.5 -2.04 6.26 8.65zm19.04 -11.47l-4.14 -3.59 1.88 -2.17 1.95 1.69c0.92,-0.3 1.71,-0.64 2.38,-1.02 0.68,-0.39 1.22,-0.81 1.64,-1.3 0.81,-0.93 1.2,-1.9 1.19,-2.92 -0.01,-1.01 -0.43,-1.88 -1.25,-2.59 -0.79,-0.68 -1.58,-1.05 -2.38,-1.11 -0.8,-0.04 -1.93,0.2 -3.4,0.74l-1.76 0.66c-2.4,0.88 -4.35,1.3 -5.84,1.25 -1.49,-0.03 -2.78,-0.53 -3.9,-1.49 -1.53,-1.33 -2.3,-2.97 -2.31,-4.92 -0.01,-1.95 0.74,-3.8 2.25,-5.55 0.79,-0.91 1.65,-1.76 2.55,-2.56 0.91,-0.79 1.88,-1.52 2.92,-2.19l3.77 3.27 -1.88 2.17 -1.78 -1.54c-0.79,0.25 -1.47,0.55 -2.07,0.9 -0.59,0.35 -1.09,0.76 -1.5,1.23 -0.61,0.72 -0.89,1.55 -0.82,2.48 0.08,0.94 0.48,1.72 1.2,2.35 0.58,0.5 1.24,0.76 1.98,0.76 0.74,0.01 1.83,-0.23 3.27,-0.74l1.82 -0.62c2.61,-0.91 4.64,-1.35 6.08,-1.31 1.44,0.05 2.75,0.58 3.92,1.59 1.71,1.48 2.52,3.3 2.44,5.45 -0.08,2.15 -1.03,4.29 -2.86,6.4 -0.67,0.78 -1.46,1.56 -2.35,2.33 -0.9,0.78 -1.9,1.57 -3,2.35zm45.98 -36.93l-18.95 -10.04 6.78 13.24 2.19 -1.12 1.12 2.19 -7.39 3.78 -1.12 -2.19 2.19 -1.12 -9.02 -17.61 -2.19 1.12 -1.12 -2.19 5.32 -2.73 19 10.11 -6.92 -13.52 -2.19 1.12 -1.12 -2.19 7.39 -3.78 1.12 2.19 -2.19 1.12 10.24 20.02 -3.14 1.6zm26.03 -9.99l-17.7 6 -0.79 -2.33 2.33 -0.79 -6.35 -18.74 -2.33 0.79 -0.79 -2.33 16.96 -5.75 1.58 4.66 -2.53 0.86 -0.79 -2.33 -7.21 2.44 2.64 7.8 4.89 -1.65 -0.53 -1.56 2.33 -0.79 1.84 5.44 -2.33 0.79 -0.52 -1.55 -4.89 1.65 2.85 8.42 7.96 -2.7 -0.85 -2.53 2.52 -0.85 1.71 5.05zm24.19 -3.68c-3.26,1.17 -5.99,1.89 -8.16,2.16 -3.86,0.49 -7.07,-0.28 -9.63,-2.31 -2.55,-2.04 -4.08,-5.03 -4.58,-9 -0.52,-4.07 0.2,-7.37 2.15,-9.89 1.95,-2.52 4.96,-4.04 9.03,-4.56 1.44,-0.18 2.86,-0.27 4.26,-0.28 1.4,-0.01 2.78,0.09 4.15,0.27l0.66 5.2 -2.78 0.35 -0.52 -2.42c-0.96,-0.34 -1.89,-0.57 -2.79,-0.68 -0.9,-0.11 -1.78,-0.11 -2.64,0 -2.31,0.29 -4.01,1.45 -5.09,3.48 -1.08,2.04 -1.41,4.69 -0.99,7.97 0.4,3.21 1.46,5.64 3.15,7.29 1.7,1.66 3.83,2.33 6.38,2 0.71,-0.09 1.39,-0.31 2.07,-0.65l-0.82 -6.43 -2.44 0.31 -0.31 -2.44 9.39 -1.19 0.31 2.44 -1.83 0.23 1.03 8.15zm24.17 1.84l-18.64 -1.42 0.19 -2.45 2.45 0.19 1.5 -19.73 -2.45 -0.19 0.19 -2.45 17.85 1.36 -0.37 4.91 -2.66 -0.21 0.19 -2.45 -7.6 -0.58 -0.63 8.21 5.15 0.39 0.12 -1.63 2.46 0.18 -0.44 5.73 -2.45 -0.19 0.12 -1.63 -5.14 -0.39 -0.68 8.85 8.38 0.64 0.21 -2.66 2.65 0.21 -0.4 5.31zm12.62 -8.15l-1.82 7.89 2 0.46 -0.56 2.4 -9.22 -2.13 0.55 -2.4 2.4 0.56 4.45 -19.28 -2.39 -0.56 0.55 -2.39 10.37 2.39c2.59,0.6 4.46,1.58 5.61,2.95 1.16,1.37 1.52,3.02 1.07,4.95 -0.38,1.64 -1.09,2.93 -2.12,3.89 -1.04,0.96 -2.41,1.58 -4.11,1.85l4.29 10.29 1.59 0.36 -0.55 2.4 -6.17 -1.42 -4.09 -11.78 -1.85 -0.43zm0.53 -2.3l0.85 0.2c1.83,0.42 3.3,0.3 4.41,-0.35 1.11,-0.65 1.87,-1.84 2.26,-3.56 0.3,-1.31 0.14,-2.38 -0.5,-3.21 -0.63,-0.83 -1.74,-1.43 -3.31,-1.8l-1.61 -0.37 -2.1 9.09zm29.29 -0.29l-7.27 18.4 2.29 0.9 -0.9 2.29 -9.38 -3.7 0.91 -2.29 2.28 0.9 7.27 -18.4 -2.29 -0.9 0.9 -2.29 9.38 3.7 -0.9 2.29 -2.29 -0.9zm27.24 31.55l2.28 -13.31 -1.11 -0.96 1.62 -1.87 7.02 6.08 -1.63 1.87 -1.57 -1.37 -1.69 9.98 9.61 -3.12 -1.51 -1.31 1.61 -1.87 4.83 4.19 -1.61 1.87 -1.08 -0.94 -12.85 4.15 -5.46 6.31 1.87 1.62 -1.62 1.87 -7.66 -6.64 1.62 -1.87 1.87 1.62 5.46 -6.3zm12.83 29.5c-2.39,-3.03 -3.35,-6.14 -2.9,-9.33 0.45,-3.19 2.27,-6.03 5.45,-8.53 3.17,-2.49 6.36,-3.58 9.56,-3.27 3.21,0.31 6,1.98 8.39,5.02 2.38,3.03 3.35,6.14 2.89,9.34 -0.45,3.19 -2.26,6.03 -5.43,8.53 -3.18,2.49 -6.37,3.58 -9.58,3.26 -3.21,-0.31 -6,-1.99 -8.38,-5.02zm1.94 -1.53c1.3,1.66 3.11,2.39 5.41,2.2 2.31,-0.19 4.71,-1.27 7.21,-3.24 2.51,-1.97 4.13,-4.05 4.85,-6.24 0.73,-2.19 0.44,-4.12 -0.86,-5.77 -1.3,-1.65 -3.09,-2.38 -5.4,-2.2 -2.3,0.19 -4.7,1.28 -7.21,3.25 -2.51,1.97 -4.13,4.05 -4.85,6.24 -0.73,2.19 -0.45,4.11 0.85,5.76zm17.64 33.37c-2.09,-2.8 -3.58,-5.21 -4.49,-7.21 -1.61,-3.57 -1.82,-6.87 -0.63,-9.93 1.2,-3.06 3.63,-5.42 7.29,-7.07 3.76,-1.7 7.15,-1.99 10.14,-0.86 3.01,1.13 5.36,3.57 7.05,7.33 0.61,1.33 1.12,2.67 1.54,4.01 0.42,1.34 0.73,2.7 0.96,4.07l-4.8 2.17 -1.16 -2.57 2.18 -1.21c0.04,-1.02 -0.02,-1.98 -0.18,-2.88 -0.16,-0.9 -0.42,-1.75 -0.77,-2.54 -0.97,-2.14 -2.59,-3.42 -4.86,-3.86 -2.27,-0.44 -4.92,0.03 -7.94,1.4 -2.97,1.34 -4.99,3.07 -6.08,5.19 -1.09,2.12 -1.1,4.36 -0.04,6.72 0.3,0.66 0.71,1.25 1.24,1.79l5.94 -2.68 -1.02 -2.25 2.25 -1.02 3.92 8.67 -2.25 1.02 -0.77 -1.69 -7.52 3.4zm14.21 10.43l9.68 -9.4 -0.33 -1.43 2.41 -0.55 2.09 9.04 -2.41 0.55 -0.47 -2.03 -7.25 7.07 9.6 3.14 -0.45 -1.95 2.41 -0.56 1.44 6.23 -2.41 0.55 -0.32 -1.38 -12.82 -4.22 -8.13 1.88 0.55 2.41 -2.41 0.55 -2.28 -9.87 2.41 -0.56 0.56 2.41 8.13 -1.88zm0.88 24.01l-4.75 -1.74 0.06 2.49 -2.47 0.06 -0.17 -6.73 2.47 -0.06 0.04 1.51 22.89 8.35 0.1 3.82 -22.44 9.55 0.04 1.46 -2.48 0.06 -0.23 -9.27 2.47 -0.06 0.06 2.49 4.66 -2 -0.25 -9.93zm2.6 0.94l0.2 7.9 9.9 -4.22 -10.1 -3.68zm-9.5 20.35l2.45 0.31 -0.31 2.46 19.74 2.51 0.31 -2.46 2.45 0.31 -1.2 9.44 -2.45 -0.31 0.26 -2.04 -9.37 -1.16 8.26 9.91 0.26 -2.11 2.46 0.31 -0.91 7.13 -2.45 -0.31 0.21 -1.66 -7.29 -8.74 -12.67 7.97 -0.23 1.86 -2.45 -0.31 1.19 -9.41 2.45 0.31 -0.21 1.65 10.64 -6.69 -9.63 -1.26 -0.26 2.05 -2.45 -0.32 1.2 -9.44zm0.91 33.68l-3.7 -3.46 -0.91 2.32 -2.3 -0.91 2.47 -6.26 2.3 0.91 -0.56 1.4 17.82 16.63 -1.4 3.55 -24.39 0.03 -0.53 1.37 -2.31 -0.91 3.41 -8.63 2.3 0.91 -0.91 2.31 5.06 -0.02 3.65 -9.24zm2.02 1.88l-2.89 7.36 10.75 -0.03 -7.86 -7.33zm-11.52 27.21l-6.86 -4.4 -1.11 1.74 -2.08 -1.34 5.13 -8.01 2.09 1.34 -1.34 2.08 16.75 10.73 1.33 -2.08 2.08 1.34 -5.77 9c-1.44,2.25 -3,3.69 -4.69,4.32 -1.69,0.64 -3.37,0.42 -5.05,-0.66 -1.42,-0.91 -2.41,-2.02 -2.97,-3.33 -0.55,-1.3 -0.68,-2.81 -0.35,-4.51l-11.2 0.58 -0.88 1.38 -2.09 -1.33 3.44 -5.36 12.54 0.12 1.03 -1.61zm1.99 1.28l-0.47 0.73c-1.02,1.59 -1.41,3.03 -1.17,4.3 0.25,1.27 1.12,2.38 2.62,3.34 1.13,0.73 2.2,0.93 3.2,0.62 1.01,-0.33 1.95,-1.17 2.82,-2.53l0.9 -1.4 -7.9 -5.06zm-10.5 29.57l4.36 -4.58 -1.93 -1.84 1.84 -1.94 3.88 3.69 -16 16.79 -3.88 -3.7 1.85 -1.94 1.94 1.85 4.36 -4.58 -14.25 -13.58 -1.7 1.79 -1.79 -1.71 6.99 -7.33 1.79 1.71 -1.71 1.78 14.25 13.59zm-28.37 6.1l-1.22 -4.91 -2.03 1.44 -1.43 -2.01 5.49 -3.9 1.43 2.01 -1.23 0.88 5.86 23.65 -3.11 2.21 -20.45 -13.27 -1.2 0.85 -1.43 -2.02 7.56 -5.37 1.43 2.01 -2.03 1.45 4.26 2.74 8.1 -5.76zm0.67 2.69l-6.44 4.58 9.02 5.85 -2.58 -10.43z"/>
  <g id="LOGO">
   <path id="SAYAP" class="fil4" d="M289.33 226.96c-2.52,2.6 -6.77,5.86 -10.25,6.79 -4.98,1.34 -7.71,1.4 -9.95,2.19 -2.25,0.78 -2.73,0.78 -2.73,0.78 0,0 -0.12,-2.06 6.43,-5.21 6.55,-3.16 14.44,-6.31 18.2,-13.59 4.07,-7.89 4.65,-15.68 2.12,-24.03 0,0 -2.67,8.5 -7.34,12.5 -4.67,4 -10.92,5.52 -14.68,7.28 -3.76,1.76 -7.71,5.64 -7.71,5.64 0,0 -0.78,-2.73 6.74,-8.31 7.52,-5.58 12.74,-6.19 17.96,-14.8 6.59,-10.89 5.87,-21.56 0.3,-32.7 0,0 -2.18,9.58 -7.04,15.53 -4.85,5.94 -10.92,8.43 -14.68,10.31 -3.76,1.88 -7.28,5.1 -8.49,6.55 -1.22,1.46 -2.13,2.67 -2.13,2.67 0,0 1.28,-6 6.98,-10.25 5.7,-4.25 16.44,-10.37 19.96,-19.11 3.52,-8.73 1.21,-19.9 -1.58,-26.33 -2.79,-6.43 -9.22,-11.83 -10.86,-13.28 -1.63,-1.46 -2.42,-1.58 -2.42,-1.58 0,0 7.58,10.13 2.12,25.18 -5.46,15.04 -21.35,21.35 -24.63,26.81 -3.28,5.46 -3.16,5.7 -3.16,5.7 0,0 -1.39,-4.73 3.95,-9.7 5.34,-4.98 20.04,-16.97 21.53,-31.37 3.01,-29.02 -31.29,-45.38 -55.08,-50.11 27.75,14.43 43.32,39.65 20.02,65.64 -6.31,7.04 -13.1,15.9 -13.59,23.3 -0.94,14.36 16.05,9.35 15.11,21.48 -0.43,5.46 -5.77,5.82 -5.71,9.94 0.06,4.13 18.2,24.82 20.63,29.79 2.43,4.97 -0.61,17.47 -10.92,23.05 -10.31,5.58 -30.58,12.02 -37.86,12.74 -6.86,0.69 -18.24,0.69 -25.11,0 -7.28,-0.72 -27.54,-7.16 -37.86,-12.74 -10.31,-5.58 -13.34,-18.08 -10.92,-23.05 2.43,-4.97 20.57,-25.66 20.63,-29.79 0.06,-4.12 -5.28,-4.48 -5.7,-9.94 -0.94,-12.13 16.05,-7.12 15.1,-21.48 -0.48,-7.4 -7.28,-16.26 -13.59,-23.3 -23.3,-25.99 -7.73,-51.21 20.02,-65.64 -23.79,4.73 -58.09,21.09 -55.08,50.11 1.49,14.4 16.2,26.39 21.54,31.37 5.33,4.97 3.94,9.7 3.94,9.7 0,0 0.12,-0.24 -3.16,-5.7 -3.27,-5.46 -19.17,-11.77 -24.63,-26.81 -5.46,-15.05 2.13,-25.18 2.13,-25.18 0,0 -0.79,0.12 -2.43,1.58 -1.64,1.45 -8.07,6.85 -10.86,13.28 -2.79,6.43 -5.09,17.6 -1.58,26.33 3.52,8.74 14.26,14.86 19.96,19.11 5.71,4.25 6.98,10.25 6.98,10.25 0,0 -0.91,-1.21 -2.12,-2.67 -1.22,-1.45 -4.74,-4.67 -8.5,-6.55 -3.76,-1.88 -9.83,-4.37 -14.68,-10.31 -4.85,-5.95 -7.04,-15.53 -7.04,-15.53 -5.56,11.14 -6.29,21.81 0.31,32.7 5.22,8.61 10.43,9.22 17.96,14.8 7.52,5.58 6.73,8.31 6.73,8.31 0,0 -3.94,-3.88 -7.71,-5.64 -3.76,-1.76 -10.01,-3.28 -14.68,-7.28 -4.67,-4 -7.34,-12.5 -7.34,-12.5 -2.52,8.35 -1.95,16.14 2.13,24.03 3.76,7.28 11.64,10.43 18.2,13.59 6.55,3.15 6.43,5.21 6.43,5.21 0,0 -0.49,0 -2.73,-0.78 -2.25,-0.79 -4.98,-0.85 -9.95,-2.19 -3.49,-0.93 -7.74,-4.19 -10.25,-6.79 2.09,82.04 200.44,82.04 202.62,0z"/>
   <path id="SAYAP_0" class="fil5" d="M206.8 273.91c11.53,-3.03 24.15,-7.16 30.22,-10.8 6.06,-3.64 10.07,-8.73 6.67,-16.98 -3.46,-8.4 -21.9,-27.74 -21.9,-33.37 0,-1.76 0.36,-2.61 0.36,-2.61 0,0 5.83,1.82 5.83,-3.58 0,-5.4 -1.1,-7.46 -4.25,-7.34 -3.15,0.12 -3.09,1.4 -4.19,1.09 -1.09,-0.3 -2.13,-5.41 -2.13,-5.41 0,0 -4.24,7.73 -2.66,14.28 1.58,6.56 17.35,30.46 17.35,30.46 0,0 8.25,11.28 2.91,16.74 -5.34,5.46 -23.66,8.07 -29.91,11.04 -12.82,6.1 -21.02,6.1 -33.85,0 -6.24,-2.97 -24.56,-5.58 -29.9,-11.04 -5.34,-5.46 2.91,-16.74 2.91,-16.74 0,0 15.77,-23.9 17.35,-30.46 1.58,-6.55 -2.66,-14.28 -2.66,-14.28 0,0 -1.04,5.11 -2.13,5.41 -1.1,0.31 -1.04,-0.97 -4.19,-1.09 -3.15,-0.12 -4.25,1.94 -4.25,7.34 0,5.4 5.83,3.58 5.83,3.58 0,0 0.36,0.85 0.36,2.61 0,5.63 -18.44,24.97 -21.9,33.37 -3.4,8.25 0.61,13.34 6.67,16.98 6.07,3.64 18.69,7.77 30.22,10.8 14.89,3.92 22.35,3.92 37.24,0z"/>
   <path id="TUGU_x0020_BOTTOM" class="fil6" d="M188.18 236.18c1.86,0 3.37,1.51 3.37,3.37 0,1.58 -1.1,2.91 -2.57,3.27l0 22.9 -1.6 0 0 -22.9c-1.48,-0.36 -2.57,-1.69 -2.57,-3.27 0,-1.86 1.51,-3.37 3.37,-3.37zm30.5 -12.85c0,0 2,4.61 0.36,6.85 -1.63,2.25 -10.07,4.98 -11.58,5.95 -1.52,0.97 -2.31,1.94 -2.31,1.94 0,0 -1.03,-6.25 2.37,-8.68 3.4,-2.42 5.58,-1.51 7.58,-2.42 2,-0.91 3.58,-3.64 3.58,-3.64zm-61 0c0,0 -2,4.61 -0.36,6.85 1.63,2.25 10.07,4.98 11.58,5.95 1.52,0.97 2.31,1.94 2.31,1.94 0,0 1.03,-6.25 -2.37,-8.68 -3.4,-2.42 -5.58,-1.51 -7.58,-2.42 -2,-0.91 -3.58,-3.64 -3.58,-3.64zm29.36 46.22c0,0 -3.09,-11.7 -7.64,-14.8 -4.55,-3.09 -19.72,-10.86 -22.63,-12.86 -2.91,-2 -3.64,-4.61 -3.64,-4.61 0,0 -4.49,8.8 0.73,14.74 5.21,5.95 12.25,6.07 17.11,8.8 4.85,2.73 16.12,9 16.12,9l-0.05 -0.27zm-31.85 -40.28c0,0 -3.76,7.53 2.19,11.04 5.94,3.52 21.11,11.77 21.11,11.77 0,0 -3.1,-4.24 -3.76,-6.25 -0.67,-2 -1.22,-4.61 -5.83,-7.7 -4.61,-3.09 -7.34,-3.28 -9.95,-5.04 -2.61,-1.75 -3.76,-3.82 -3.76,-3.82zm34.13 40.28c0,0 3.09,-11.7 7.64,-14.8 4.55,-3.09 19.72,-10.86 22.63,-12.86 2.91,-2 3.64,-4.61 3.64,-4.61 0,0 4.49,8.8 -0.73,14.74 -5.22,5.95 -12.25,6.07 -17.11,8.8 -4.85,2.73 -16.12,9 -16.12,9l0.05 -0.27zm31.85 -40.28c0,0 3.76,7.53 -2.19,11.04 -5.94,3.52 -21.11,11.77 -21.11,11.77 0,0 3.1,-4.24 3.76,-6.25 0.67,-2 1.22,-4.61 5.83,-7.7 4.61,-3.09 7.34,-3.28 9.95,-5.04 2.6,-1.75 3.76,-3.82 3.76,-3.82z"/>
   <path id="TUGU_x0020_TOP" class="fil6" d="M193.6 179.69c3.24,2.55 3.73,3.83 3.73,3.83l3.82 -0.06c0,0 0.94,-1.76 2.22,-3.24 0.98,-1.07 1.23,-1.07 1.48,-1.22l-8.25 -53.69 -16.82 0 -8.59 53.69c0.27,0.13 0.57,0.18 1.48,1.22 1.28,1.48 2.22,3.24 2.22,3.24l3.82 0.06c0,0 0.51,-1.18 3.76,-3.73 3.15,-2.47 7.97,-2.58 11.13,-0.1zm1.24 -63.58c1.01,-1.05 3.53,-2.93 5.15,-2.91l1.28 5.22c-2.1,1.19 -4.03,2.44 -4.8,4.85l-16.5 0c-0.77,-2.41 -2.69,-3.66 -4.79,-4.85l1.27 -5.22c1.53,-0.07 4.15,1.86 5.16,2.91 2.16,-1.74 3.35,-2.67 6.68,-2.69 3.25,-0.02 3.97,0.72 6.55,2.69zm-24.2 80.12l35.06 0 0 25.75 5.77 0 0.06 4.47c0,0 -0.47,-0.1 -2.22,0.39 -3.52,0.99 -4.57,3.56 -5.06,4.09 0,0 -0.91,-2 -2.91,-4.24 -1.34,-1.51 -1.86,-3.4 -2.05,-4.49l-22.14 0c-0.19,1.09 -0.7,2.98 -2.04,4.49 -2,2.24 -2.91,4.24 -2.91,4.24 -0.63,-0.61 -1.69,-3.23 -5.07,-4.09 -1.75,-0.45 -2.21,-0.52 -2.21,-0.52l0.06 -4.34 5.66 0 0 -25.75zm21.18 6.58c1.64,2.19 1.4,3.64 1.4,3.64 0,0 1.39,-2.85 2.97,-3.94 1.58,-1.09 3.16,-1.09 3.16,-1.09l0 19.05 -22.25 0 0 -19.05c0,0 1.58,0 3.16,1.09 1.57,1.09 2.97,3.94 2.97,3.94 0,0 -0.24,-1.45 1.39,-3.64 1.79,-2.37 5.42,-2.37 7.2,0zm-25.06 -8.85l-4.07 -15.11c0,0 5.89,-0.18 8.86,3.28 2.97,3.45 2.61,4.48 2.61,4.48l5.52 -0.06c0,0 3.27,-4.49 5.52,-5.34 5.41,-2.04 8.46,1.09 11.57,5.34l5.52 0.06c0,0 -0.36,-1.03 2.61,-4.48 2.97,-3.46 8.86,-3.28 8.86,-3.28l-4.07 15.11c-14.43,0.08 -28.5,0.08 -42.93,0zm21.26 -60.59l0.82 0.93 0.82 0.92 -0.82 0.93 -0.09 0.1 0 16.79c0.5,0.16 0.83,0.46 0.83,0.81 0,0.35 -0.33,0.65 -0.83,0.8l0 17.6 0.04 0.06 0.78 0.89 -0.78 0.9 -0.77 0.89 -0.77 -0.89 -0.78 -0.9 0.78 -0.89 0.04 -0.06 0 -17.6c-0.49,-0.15 -0.83,-0.45 -0.83,-0.8 0,-0.35 0.34,-0.65 0.83,-0.81l0 -16.79 -0.09 -0.1 -0.82 -0.93 0.82 -0.92 0.82 -0.93z"/>
   <path id="API" class="fil7" d="M194.17 113.03c-0.7,-0.7 -1.44,-0.95 -2.42,-1.37 -0.04,-0.77 -0.24,-2.89 -1.21,-4.98 -2.56,-5.5 -4.1,-21.05 -2.55,-27.04 0,0 1.46,11.96 3.58,15.6 2.13,3.64 4.13,6.61 4.49,11.52 0.15,2.05 -0.61,4.48 -1.89,6.27zm-7.35 -1.91c-0.21,-0.6 -0.63,-1.71 -1.61,-3.11 -0.82,-1.17 -0.55,-4.67 -0.57,-7.12 -0.01,-1.81 -0.68,-2.91 -0.68,-2.91 0,0 -3.46,5.42 -3.22,9.97 0.24,4.55 2.2,5.08 2.2,5.08 1.21,-0.91 1.79,-1.47 3.88,-1.91zm0.75 -0.07c-0.12,-0.68 -0.32,-1.53 -1.03,-2.4 -0.72,-0.86 -0.88,-1.39 -1.03,-2.76 -0.16,-1.36 0.09,-6.67 -0.58,-7.89 -0.67,-1.21 -0.43,-2.09 0.06,-3.12 0.49,-1.03 1.82,-3.28 1.82,-3.28 0.31,4.64 0.79,8.12 1.96,12.71 0.55,2.19 2.17,4.93 2.11,7.01 -0.76,-0.23 -1.82,-0.31 -2.42,-0.31 -0.59,0 -0.6,0.02 -0.89,0.04z"/>
  </g>
  <g id="WORDMARK">
   <path class="fil6" d="M155.85 311.1c-1.76,0.15 -2.04,-3.44 -0.01,-3.51 2.06,0.01 3.76,0.01 4.61,0.01 0.52,0.01 0.82,0.46 0.82,0.89 0,4.2 0,8.46 0,12.66 0.83,4.68 6.61,4.05 7.84,0.64 0.08,-3.75 0,-7.51 0.03,-11.25 -1.69,-0.07 -1.67,-2.92 -0.03,-2.95 2.33,0.02 5.02,0.02 6.01,0.01 0.32,-0.01 0.56,0.18 0.57,0.5 0.04,2.71 -0.01,11.54 -0.01,14.87 -0.56,2.21 -1.79,3.99 -4.22,4.63 -1.17,0.31 -8.01,0.2 -9.75,0.24 -0.02,0 -0.04,-0.01 -0.06,-0.01 -3.15,-0.43 -5.52,-1.58 -5.8,-6.56 -0.01,-3.4 0.04,-6.77 0,-10.17z"/>
   <path class="fil6" d="M183.79 323.94c-0.09,-6.77 -0.17,-13.55 -0.25,-20.32 0.77,-3.73 7.39,-3.54 7.87,0 0,6.68 0,13.66 0,20.34 0,3.21 6.62,3.17 6.62,0.01 0,-6.78 0,-13.78 0,-20.56 0,-2.57 -2.16,-5.55 -4.87,-5.67 -3.06,-0.12 -6.14,-0.12 -9.25,0 -3.43,0.44 -5.18,3.09 -5.37,6.38 0,6.59 -0.01,13.3 -0.01,19.89 0,2.79 5.29,2.65 5.26,-0.07z"/>
   <path class="fil6" d="M201.8 305.76l5.64 0c0.88,0.01 1.17,0.81 1.17,1.44 0,1.06 0.06,12.8 0.06,12.8 0.02,0.92 0.97,3.22 3.25,3.19 2.28,-0.03 2.97,-1.48 2.96,-2.22l-0.01 -13.58c0,-2.16 2.91,-2.2 2.91,0.02l0.01 13.4c0.02,1.39 -0.06,3.54 -1.83,4.64 0.46,7.65 -1.47,14.62 -10.37,15.31 -13.33,1.05 -18.08,-5.17 -27.36,-4.86 -19.88,0.66 -15.47,18.53 8.12,18.53 21.9,0 25.49,-18.39 32.61,-17.78 4.37,0.37 5.12,3.8 5.12,3.8 -2.02,-1.33 -5.4,1.45 -6.59,2.79 -11.15,12.5 -14.33,17.32 -34.63,16.63 -11.18,-0.37 -18.15,-4.33 -20.34,-7.51 -2.18,-3.19 -4.81,-7.81 -1.99,-14.12 2.81,-6.31 10.5,-9.84 17.37,-9.47 10.12,0.55 20.69,8.02 27.66,7.47 4.67,-0.36 8.68,-5.37 8.18,-9.87 0,0 -0.72,1.39 -4.68,1.42 -3.96,0.04 -7.37,-4.35 -7.5,-8.1 -0.12,-3.75 0.07,-10.06 0.07,-10.06 -1.83,0.06 -1.93,-3.9 0.17,-3.87z"/>
  </g>
  <path class="fil6" d="M234.79 320.16c2.74,0 4.96,2.23 4.96,4.97 0,2.74 -2.22,4.96 -4.96,4.96 -2.75,0 -4.97,-2.22 -4.97,-4.96 0,-2.74 2.22,-4.97 4.97,-4.97z"/>
  <path class="fil6" d="M137.06 320.16c2.75,0 4.97,2.23 4.97,4.97 0,2.74 -2.22,4.96 -4.97,4.96 -2.74,0 -4.96,-2.22 -4.96,-4.96 0,-2.74 2.22,-4.97 4.96,-4.97z"/>
 </g>
</svg>
